<svg width="84" height="77" viewBox="0 0 84 77" fill="none" xmlns="http://www.w3.org/2000/svg">
<rect width="84" height="76.23" rx="16" fill="#D9D9D9" fill-opacity="0.49"/>
<path d="M30.5284 33.6372H26.2784C26.1572 32.9402 25.9337 32.3228 25.6079 31.7849C25.2822 31.2394 24.8769 30.7773 24.392 30.3985C23.9072 30.0197 23.3541 29.7356 22.7329 29.5463C22.1193 29.3493 21.4564 29.2508 20.7443 29.2508C19.4791 29.2508 18.3579 29.569 17.3807 30.2053C16.4034 30.8341 15.6382 31.7584 15.0852 32.9781C14.5322 34.1902 14.2557 35.6713 14.2557 37.4213C14.2557 39.2016 14.5322 40.7016 15.0852 41.9213C15.6458 43.1334 16.411 44.05 17.3807 44.6713C18.3579 45.2849 19.4753 45.5917 20.7329 45.5917C21.4299 45.5917 22.0814 45.5008 22.6875 45.319C23.3011 45.1296 23.8503 44.8531 24.3352 44.4894C24.8276 44.1258 25.2405 43.6788 25.5738 43.1485C25.9147 42.6182 26.1496 42.0122 26.2784 41.3303L30.5284 41.3531C30.3693 42.4591 30.0246 43.497 29.4943 44.4667C28.9716 45.4364 28.286 46.2925 27.4375 47.0349C26.589 47.7697 25.5966 48.3455 24.4602 48.7622C23.3238 49.1713 22.0625 49.3758 20.6761 49.3758C18.6307 49.3758 16.8049 48.9023 15.1988 47.9553C13.5928 47.0084 12.3276 45.641 11.4034 43.8531C10.4791 42.0652 10.017 39.9213 10.017 37.4213C10.017 34.9137 10.4829 32.7697 11.4147 30.9894C12.3466 29.2016 13.6155 27.8341 15.2216 26.8872C16.8276 25.9402 18.6458 25.4667 20.6761 25.4667C21.9716 25.4667 23.1761 25.6485 24.2897 26.0122C25.4034 26.3758 26.3958 26.9099 27.267 27.6144C28.1382 28.3114 28.8541 29.1675 29.4147 30.1826C29.9829 31.1902 30.3541 32.3417 30.5284 33.6372ZM37.5028 25.7849L43.5596 44.1031H43.7983L49.8437 25.7849H54.4801L46.2755 49.0576H41.071L32.8778 25.7849H37.5028ZM57.8153 49.0576H53.3153L61.5085 25.7849H66.713L74.9176 49.0576H70.4176L64.2017 30.5576H64.0199L57.8153 49.0576ZM57.963 39.9326H70.2358V43.319H57.963V39.9326Z" fill="#373737"/>
</svg>
