<svg width="40" height="39" viewBox="0 0 40 39" fill="none" xmlns="http://www.w3.org/2000/svg">
<ellipse cx="19.6047" cy="19.5" rx="19.6047" ry="19.5" fill="#D9D9D9"/>
<path d="M14.7093 17.835H13.1155C13.07 17.5736 12.9862 17.3421 12.8641 17.1404C12.7419 16.9359 12.5899 16.7626 12.4081 16.6205C12.2263 16.4785 12.0189 16.3719 11.786 16.3009C11.5558 16.2271 11.3073 16.1901 11.0402 16.1901C10.5658 16.1901 10.1453 16.3094 9.77885 16.5481C9.41238 16.7839 9.12544 17.1305 8.91806 17.5878C8.71067 18.0424 8.60698 18.5978 8.60698 19.254C8.60698 19.9217 8.71067 20.4842 8.91806 20.9415C9.12828 21.3961 9.41522 21.7398 9.77885 21.9728C10.1453 22.2029 10.5644 22.318 11.036 22.318C11.2973 22.318 11.5416 22.2839 11.7689 22.2157C11.999 22.1447 12.205 22.041 12.3868 21.9046C12.5715 21.7682 12.7263 21.6006 12.8513 21.4018C12.9791 21.2029 13.0672 20.9756 13.1155 20.7199L14.7093 20.7285C14.6496 21.1432 14.5203 21.5324 14.3215 21.8961C14.1254 22.2597 13.8683 22.5807 13.5502 22.8592C13.232 23.1347 12.8598 23.3506 12.4337 23.5069C12.0075 23.6603 11.5345 23.737 11.0146 23.737C10.2476 23.737 9.56294 23.5594 8.96067 23.2043C8.3584 22.8492 7.88397 22.3364 7.53738 21.666C7.19078 20.9955 7.01749 20.1915 7.01749 19.254C7.01749 18.3137 7.1922 17.5097 7.54164 16.8421C7.89107 16.1717 8.36692 15.6589 8.96919 15.3038C9.57147 14.9486 10.2533 14.7711 11.0146 14.7711C11.5004 14.7711 11.9521 14.8393 12.3698 14.9756C12.7874 15.112 13.1595 15.3123 13.4862 15.5765C13.8129 15.8378 14.0814 16.1589 14.2916 16.5396C14.5047 16.9174 14.6439 17.3492 14.7093 17.835ZM17.3247 14.8904L19.596 21.7597H19.6855L21.9525 14.8904H23.6911L20.6144 23.6177H18.6627L15.5903 14.8904H17.3247ZM24.9418 23.6177H23.2543L26.3268 14.8904H28.2785L31.3552 23.6177H29.6677L27.3367 16.6802H27.2686L24.9418 23.6177ZM24.9972 20.1958H29.5995V21.4657H24.9972V20.1958Z" fill="#242424"/>
</svg>
