<svg width="30" height="30" viewBox="0 0 30 30" fill="none" xmlns="http://www.w3.org/2000/svg">
<path d="M15.5714 2C14.2927 2 13.0664 2.50797 12.1622 3.41216C11.258 4.31636 10.75 5.54271 10.75 6.82143V15.3929C10.75 16.026 10.8747 16.653 11.117 17.2379C11.3593 17.8229 11.7145 18.3544 12.1622 18.8021C12.6099 19.2498 13.1414 19.605 13.7263 19.8473C14.3113 20.0896 14.9383 20.2143 15.5714 20.2143C16.2046 20.2143 16.8315 20.0896 17.4165 19.8473C18.0015 19.605 18.533 19.2498 18.9807 18.8021C19.4284 18.3544 19.7835 17.8229 20.0258 17.2379C20.2681 16.653 20.3929 16.026 20.3929 15.3929V6.82143C20.3929 5.54271 19.8849 4.31636 18.9807 3.41216C18.0765 2.50797 16.8502 2 15.5714 2ZM8.60714 14.5893C8.60714 14.3762 8.52248 14.1718 8.37178 14.0211C8.22108 13.8704 8.01669 13.7857 7.80357 13.7857C7.59045 13.7857 7.38606 13.8704 7.23536 14.0211C7.08466 14.1718 7 14.3762 7 14.5893V15.3929C6.99994 17.5271 7.79607 19.5845 9.23269 21.1628C10.6693 22.7411 12.643 23.7267 14.7679 23.9268V26.9107C14.7679 27.1238 14.8525 27.3282 15.0032 27.4789C15.1539 27.6296 15.3583 27.7143 15.5714 27.7143C15.7845 27.7143 15.9889 27.6296 16.1396 27.4789C16.2903 27.3282 16.375 27.1238 16.375 26.9107V23.9268C18.4998 23.7267 20.4736 22.7411 21.9102 21.1628C23.3468 19.5845 24.1429 17.5271 24.1429 15.3929V14.5893C24.1429 14.3762 24.0582 14.1718 23.9075 14.0211C23.7568 13.8704 23.5524 13.7857 23.3393 13.7857C23.1262 13.7857 22.9218 13.8704 22.7711 14.0211C22.6204 14.1718 22.5357 14.3762 22.5357 14.5893V15.3929C22.5357 17.2399 21.802 19.0113 20.4959 20.3173C19.1899 21.6234 17.4185 22.3571 15.5714 22.3571C13.7244 22.3571 11.953 21.6234 10.6469 20.3173C9.34088 19.0113 8.60714 17.2399 8.60714 15.3929V14.5893Z" fill="#242424"/>
</svg>
