<svg width="24" height="24" viewBox="0 0 24 24" fill="none" xmlns="http://www.w3.org/2000/svg">
<path d="M3.42512 20.3999L20.3726 12.9199C20.5478 12.8431 20.6972 12.7149 20.8022 12.5513C20.9072 12.3877 20.9632 12.196 20.9632 11.9999C20.9632 11.8038 20.9072 11.6121 20.8022 11.4485C20.6972 11.2849 20.5478 11.1567 20.3726 11.0799L3.42512 3.5999C3.27837 3.534 3.11799 3.50675 2.95846 3.52061C2.79893 3.53447 2.64526 3.589 2.51131 3.6793C2.37736 3.76959 2.26735 3.8928 2.19121 4.0378C2.11506 4.18281 2.07517 4.34506 2.07514 4.5099L2.06543 9.1199C2.06543 9.6199 2.42478 10.0499 2.91038 10.1099L16.6335 11.9999L2.91038 13.8799C2.42478 13.9499 2.06543 14.3799 2.06543 14.8799L2.07514 19.4899C2.07514 20.1999 2.78412 20.6899 3.42512 20.3999Z" fill="#242424"/>
</svg>
