<svg width="25" height="25" viewBox="0 0 25 25" fill="none" xmlns="http://www.w3.org/2000/svg">
<path d="M21.0938 3.51562H3.90625C3.38825 3.51563 2.89146 3.7214 2.52518 4.08768C2.1589 4.45396 1.95313 4.95075 1.95312 5.46875V19.5312C1.95312 20.0493 2.1589 20.546 2.52518 20.9123C2.89146 21.2786 3.38825 21.4844 3.90625 21.4844H21.0938C21.6118 21.4844 22.1085 21.2786 22.4748 20.9123C22.8411 20.546 23.0469 20.0493 23.0469 19.5312V5.46875C23.0469 4.95075 22.8411 4.45396 22.4748 4.08768C22.1085 3.7214 21.6118 3.51562 21.0938 3.51562ZM4.29688 10.1562H7.03125V12.1094H4.29688V10.1562ZM7.03125 5.85938V7.8125H4.29688V5.85938H7.03125ZM4.29688 14.4531H7.03125V19.1406H4.29688V14.4531ZM20.7031 19.1406H9.375V5.85938H20.7031V19.1406Z" fill="white"/>
</svg>
