<svg width="33" height="34" viewBox="0 0 33 34" fill="none" xmlns="http://www.w3.org/2000/svg">
<ellipse cx="16.5" cy="17" rx="16.5" ry="17" fill="#D9D9D9"/>
<g clip-path="url(#clip0_84_81)">
<path d="M16.0001 5.99994C15.3782 5.98432 14.7596 6.09944 14.1808 6.33853C13.6019 6.57762 13.0744 6.93585 12.6293 7.39214C12.1843 7.84844 11.8306 8.39358 11.5891 8.99551C11.3476 9.59743 11.2232 10.244 11.2232 10.8971C11.2232 11.5503 11.3476 12.1968 11.5891 12.7988C11.8306 13.4007 12.1843 13.9458 12.6293 14.4021C13.0744 14.8584 13.6019 15.2166 14.1808 15.4557C14.7596 15.6948 15.3782 15.8099 16.0001 15.7943C16.622 15.8099 17.2405 15.6948 17.8194 15.4557C18.3983 15.2166 18.9257 14.8584 19.3708 14.4021C19.8159 13.9458 20.1696 13.4007 20.4111 12.7988C20.6525 12.1968 20.7769 11.5503 20.7769 10.8971C20.7769 10.244 20.6525 9.59743 20.4111 8.99551C20.1696 8.39358 19.8159 7.84844 19.3708 7.39214C18.9257 6.93585 18.3983 6.57762 17.8194 6.33853C17.2405 6.09944 16.622 5.98432 16.0001 5.99994ZM13.3334 18.5915C12.0957 18.5915 10.9088 19.1078 10.0336 20.0267C9.15841 20.9456 8.66675 22.192 8.66675 23.4915V26.9873H23.3334V23.4915C23.3334 22.192 22.8417 20.9456 21.9666 20.0267C21.0914 19.1078 19.9044 18.5915 18.6667 18.5915H13.3334Z" fill="#242424"/>
</g>
<defs>
<clipPath id="clip0_84_81">
<rect width="20" height="21" fill="white" transform="translate(6 6)"/>
</clipPath>
</defs>
</svg>
